<?xml version="1.0" encoding="UTF-8"?>
<!DOCTYPE svg PUBLIC "-//W3C//DTD SVG 1.1//EN" "http://www.w3.org/Graphics/SVG/1.1/DTD/svg11.dtd">
<!-- Creator: CorelDRAW X7 -->
<svg xmlns="http://www.w3.org/2000/svg" xml:space="preserve" width="320px" height="60px" version="1.1" style="shape-rendering:geometricPrecision; text-rendering:geometricPrecision; image-rendering:optimizeQuality; fill-rule:evenodd; clip-rule:evenodd"
viewBox="0 0 3707 698"
 xmlns:xlink="http://www.w3.org/1999/xlink">
 <defs>
  <style type="text/css">
   <![CDATA[
    .fil4 {fill:#DB0000}
    .fil0 {fill:red}
    .fil1 {fill:red}
    .fil2 {fill:#201E1E;fill-rule:nonzero}
    .fil3 {fill:red;fill-rule:nonzero}
   ]]>
  </style>
 </defs>
 <g id="Layer_x0020_1">
  <metadata id="CorelCorpID_0Corel-Layer"/>
  <path class="fil0" d="M607 467l0 0 0 0c-1,0 -1,1 -1,1l0 1c-41,66 -115,108 -195,108 -84,0 -157,-46 -197,-114 -14,-25 -24,-52 -28,-81l0 -1c6,6 15,13 23,19 8,5 17,11 23,14 52,32 114,50 179,50 8,0 15,0 22,-1 139,-8 261,-100 307,-231 -21,-59 -57,-110 -103,-150l0 0c-61,-51 -140,-82 -226,-82 -81,0 -156,28 -215,74 -12,10 -12,10 -21,18 -6,5 -12,11 -17,17 -1,1 -4,5 -7,7l0 1c-3,-1 -6,-1 -9,-1 -27,0 -54,4 -79,11 -22,7 -43,15 -63,26 34,20 62,48 81,82l0 0c-12,36 -19,74 -19,114 0,40 7,78 19,114 15,43 38,82 67,115 35,41 81,74 132,94 76,31 159,34 237,10 62,-20 120,-58 162,-107 27,-32 47,-68 61,-108l-133 0 0 0zm0 -235c-37,62 -102,104 -178,110 -6,0 -12,1 -18,1 -83,0 -155,-45 -195,-111 19,-31 44,-57 74,-76 35,-22 77,-35 121,-35 83,0 156,45 196,111z"/>
  <path class="fil1" d="M317 201c44,0 80,36 80,80 0,43 -36,79 -80,79 -44,0 -79,-36 -79,-79 0,-44 35,-80 79,-80z"/>
  <path class="fil2" d="M880 398l39 0c2,12 8,23 18,31 11,8 25,13 43,13 18,0 32,-4 42,-12 10,-8 15,-18 15,-31 0,-11 -3,-19 -10,-25 -7,-6 -17,-11 -32,-15l-44 -11c-19,-4 -34,-12 -46,-24 -11,-11 -17,-26 -17,-46 0,-12 2,-23 7,-33 5,-10 12,-18 21,-24 9,-6 19,-11 30,-15 11,-3 23,-5 35,-5 12,0 24,2 35,5 11,4 21,8 29,14 9,7 16,15 21,24 5,10 8,21 8,33l-38 0c-2,-12 -7,-23 -16,-31 -10,-8 -23,-12 -40,-12 -15,0 -28,4 -38,11 -10,7 -15,17 -15,30 0,19 13,31 37,37l44 11c22,5 39,14 51,25 12,11 18,27 18,48 0,25 -9,44 -28,58 -18,14 -42,21 -72,21 -17,0 -32,-2 -45,-7 -13,-5 -23,-11 -30,-19 -7,-7 -13,-15 -16,-24 -4,-9 -6,-18 -6,-27zm0 0z"/>
  <path class="fil2" d="M1219 470l-40 0 0 -228 -78 0 0 -35 196 0 0 35 -78 0 0 228zm0 0z"/>
  <path class="fil2" d="M1360 207l0 170c0,19 6,35 17,46 11,12 26,17 45,17 19,0 34,-5 46,-17 11,-11 17,-27 17,-46l0 -170 39 0 0 172c0,29 -9,52 -28,70 -19,17 -43,26 -74,26 -30,0 -55,-9 -73,-26 -19,-18 -28,-42 -28,-71l0 -171 39 0zm0 0z"/>
  <path class="fil2" d="M1548 207l88 0c20,0 38,3 53,10 16,6 28,15 37,27 8,12 15,26 19,41 5,16 7,34 7,53 0,20 -2,37 -6,53 -5,16 -11,29 -20,41 -9,12 -21,22 -36,28 -16,7 -34,10 -54,10l-88 0 0 -263zm39 34l0 195 45 0c26,0 46,-8 59,-24 13,-16 20,-40 20,-73 0,-65 -27,-98 -79,-98l-45 0zm0 0z"/>
  <polygon class="fil2" points="1775,207 1815,207 1815,470 1775,470 "/>
  <path class="fil2" d="M1878 321l0 37c0,27 6,48 19,62 12,14 29,20 49,20 20,0 36,-6 49,-20 12,-14 19,-35 19,-62l0 -37c0,-27 -7,-48 -19,-63 -13,-14 -29,-22 -49,-22 -13,0 -25,3 -35,10 -10,6 -18,15 -24,28 -6,13 -9,29 -9,47zm-40 37l0 -37c0,-37 10,-66 30,-87 19,-22 45,-32 78,-32 22,0 41,4 57,14 16,10 29,23 38,41 8,18 13,40 13,64l0 37c0,37 -10,66 -29,86 -20,21 -46,31 -79,31 -34,0 -60,-10 -79,-31 -19,-20 -29,-49 -29,-86zm0 0z"/>
  <path class="fil3" d="M2297 292c0,24 -6,45 -18,61 -15,21 -40,32 -75,32l-45 0 0 90 -71 0 0 -273 114 0c32,0 56,9 73,28 14,16 22,37 22,62zm-74 1c0,-11 -3,-19 -9,-25 -6,-6 -16,-9 -31,-9l-24 0 0 68 24 0c15,0 26,-3 32,-10 5,-6 8,-14 8,-24zm0 0z"/>
  <path class="fil3" d="M2548 475l-89 0 -68 -105 0 105 -71 0 0 -273 111 0c32,0 56,9 71,29 13,15 19,34 19,55 0,24 -7,43 -21,58 -10,9 -22,15 -38,19l86 112zm-101 -185c0,-10 -3,-18 -10,-25 -7,-6 -18,-9 -33,-9l-13 0 0 68 13 0c15,0 26,-3 33,-9 7,-7 10,-15 10,-25zm0 0z"/>
  <path class="fil3" d="M2983 385c0,46 -21,76 -61,90 -15,5 -30,7 -46,7 -34,0 -66,-10 -95,-31l30 -57c22,19 43,29 63,29 9,0 17,-2 23,-7 8,-4 12,-11 12,-20 0,-8 -5,-15 -13,-20 -6,-4 -16,-8 -31,-12 -18,-5 -29,-9 -33,-11 -7,-3 -14,-7 -19,-11 -14,-12 -21,-30 -21,-54 0,-26 7,-47 22,-63 18,-20 41,-30 71,-30 29,0 58,7 86,22l-28 56c-15,-12 -31,-18 -47,-18 -7,0 -14,1 -20,5 -7,5 -10,11 -10,18 0,7 4,13 13,19 4,2 16,6 36,12 25,7 43,18 54,31 9,12 14,27 14,45zm0 0z"/>
  <path class="fil3" d="M3174 475l-155 0 0 -273 155 0 0 59 -84 0 0 46 80 0 0 60 -80 0 0 49 84 0 0 59zm0 0z"/>
  <path class="fil3" d="M2733 475l-156 0 0 -273 156 0 0 59 -85 0 0 46 80 0 0 60 -80 0 0 49 85 0 0 59zm0 0z"/>
  <path class="fil3" d="M3483 475l-71 0 -131 -167 0 167 -71 0 0 -273 71 0 131 167 0 -167 71 0 0 273zm0 0z"/>
  <path class="fil3" d="M3707 261l-59 0 0 214 -71 0 0 -214 -58 0 0 -59 188 0 0 59zm0 0z"/>
  <path class="fil4" d="M184 377c-46,-41 -71,-90 -103,-142 -8,23 -13,47 -16,73 33,38 70,55 119,69z"/>
 </g>
</svg>
